<svg class="prefix__prefix__icon" viewBox="0 0 1024 1024" xmlns="http://www.w3.org/2000/svg" width="270" height="270" data-spm-anchor-id="a313x.7781069.0.i13"><defs><style/></defs><path d="M477.581 374.365c29.215 6.207 35.209 48.691 19.122 70.359-11.88 16.001-32.275 16.124-44.302.091-13.532-18.04-11.91-47.33 4.056-62.255 3.962-3.704 9.694-5.515 14.61-8.195h6.514z" data-spm-anchor-id="a313x.7781069.0.i4" class="prefix__prefix__selected" fill="#3235E5"/><path d="M565.744 637.542c-12.068-2.267-24.337-3.783-36.162-6.963-20.635-5.551-40.678-2.831-60.884 1.905-7.868 1.845-15.945 2.94-23.984 3.881-17.28 2.02-29.35-6.212-38.198-20.24-4.673-7.407-7.625-15.509-9.183-24.12-1.76-9.725 1.266-18.136 8.002-24.915 8.683-8.74 17.736-17.136 26.938-25.332 11.24-10.01 20.487-21.598 28.785-34.067 3.521-5.293 7.381-10.377 11.312-15.378 8.824-11.226 20.736-14.774 34.582-14.1 12.819.625 22.385 6.705 29.774 16.624 6.471 8.69 12.508 17.702 18.86 26.481 9.32 12.882 21.91 22.48 33.452 33.14 4.966 4.585 9.736 9.442 14.133 14.569 5.838 6.808 8.243 14.64 6.28 23.782-2.704 12.595-7.64 23.94-16.836 33.146-7.345 7.35-16.173 11.17-26.706 10.613-.056.325-.109.65-.165.974zm-85.423-73.724c-13.27-3.882-22.327-1.533-28.887 7.831-5.44 7.764-6.774 16.473-4.65 25.598 2.218 9.531 9.591 15.883 18.58 16.794 5.901.598 11.214-.869 16.838-4.494-.774 4.341 1.9 3.536 4.024 3.56 1.764.019 3.532-.112 5.292-.024 2.887.141 3.724-.661 3.65-3.964-.415-18.693-.407-37.394-.53-56.09-.027-4.14-.004-8.281-.004-12.235h-14.312l-.001 23.024zm56.586 45.432c1.061 1.443 1.83 3.54 2.822 3.65 3.674.41 7.42.164 10.584.164v-48.87h-14.314c0 1.814-.009 3.277.002 4.74.056 9.36.136 18.72.148 28.081 0 1.165-.11 3.22-.587 3.35-3.564.988-7.222 2.102-10.869 2.167-3.124.056-5.209-2.5-5.404-5.643-.493-7.822-.713-15.662-.973-23.496-.102-3.065-.017-6.134-.017-9.456-3.985 0-7.63.153-11.252-.048-3.159-.175-3.514 1.357-3.33 3.982.393 5.676.536 11.367.766 17.054.213 5.267.182 10.557.656 15.8.709 7.85 5.55 12.384 13.425 13.264 6.757.757 12.885-.75 18.343-4.74z" data-spm-anchor-id="a313x.7781069.0.i3" class="prefix__prefix__selected" fill="#3235E5"/><path d="M194.069 557.545c3.223 1.49 5.849 2.505 8.286 3.86 15.523 8.634 21.535 26.472 15.036 44.389-5.723 15.777-18.683 25.53-35.472 25.712-26.308.284-52.621.074-79.32.074V492.205c.426-.11 1.044-.412 1.66-.406 24.688.231 49.382.19 74.058.851 16.196.434 29.166 10.69 33.46 25.142 4.038 13.596-1.534 28.974-13.351 36.847l-4.357 2.906zm-63.712 50.9c1.096.202 1.747.428 2.398.427 12.206-.03 24.413-.043 36.62-.178a38.105 38.105 0 007.668-.856c8.933-1.956 14.037-8.634 13.893-17.904-.143-9.252-5.535-16.716-14.856-17.505-14.418-1.22-28.955-1.03-43.442-1.42-2.745-.072-2.445 1.991-2.439 3.713.029 8.138.107 16.274.155 24.412.018 3.088.003 6.18.003 9.31zm.346-92.853v31.453c13.84 0 27.264.468 40.637-.167 8.75-.415 14.056-7.016 14.167-15.444.118-9.04-4.236-15.09-13.511-15.637-13.63-.803-27.342-.205-41.293-.205z" data-spm-anchor-id="a313x.7781069.0.i11" fill="#D70000"/><path d="M442.504 470.85c.01 13.011-3.017 23.631-10.71 32.536-11.538 13.357-28.958 13.296-40.591.01-14.03-16.027-14.457-45-.901-61.41 12.883-15.598 33.528-14.105 44.723 3.287 5.276 8.196 7.571 17.265 7.48 25.577z" data-spm-anchor-id="a313x.7781069.0.i6" class="prefix__prefix__selected" fill="#3235E5"/><path d="M580.882 411.841c-.494 12.006-4.771 23.541-14.427 32.678-7.863 7.44-17.16 10.954-27.91 8.03-11.017-2.996-16.74-11.398-18.842-21.881-3.68-18.35 1.682-34.092 16.245-46.044 11.397-9.35 27.112-8.662 36.05 1.096 6.447 7.038 8.796 15.655 8.884 26.121z" data-spm-anchor-id="a313x.7781069.0.i7" class="prefix__prefix__selected" fill="#3235E5"/><path d="M595.627 525.825c-11.45-.221-19.71-5.86-25.486-15.414-8.294-13.718-7.08-31.931 2.802-44.613 11.068-14.206 30.723-15.35 43.394-2.522 16.229 16.432 13.447 46.281-5.764 58.172-4.301 2.663-9.65 3.634-14.517 5.385-.141-.337-.286-.673-.429-1.008z" data-spm-anchor-id="a313x.7781069.0.i8" class="prefix__prefix__selected" fill="#3235E5"/><path d="M348.497 531.888h26.059V632.11h-26.059V531.888z" data-spm-anchor-id="a313x.7781069.0.i14" fill="#D70000"/><path d="M374.565 518.164h-26.014v-27.576h26.014v27.576z" data-spm-anchor-id="a313x.7781069.0.i15" fill="#D70000"/><path d="M334.19 565.473c-.003-19.928-10.968-33.958-30.358-38.735-2.213-.546-4.533-.92-6.805-.927-19.79-.072-39.579-.042-59.994-.042 0 7.588.278 14.626-.108 21.626-.22 3.97.894 5.125 4.845 5.095 17.49-.134 34.984-.005 52.475.079 8.36.04 13.116 4.966 13.228 13.07.044 3.212-.917 4.225-4.155 4.188-13.832-.152-27.666-.109-41.5-.016-2.819.02-5.714.245-8.44.917-15.06 3.714-25.233 19.05-23.152 34.65 2 14.983 15.487 27.261 29.868 27.212 23.051-.078 46.104-.142 69.156-.21 1.563-.005 3.126 0 4.936 0v-5.067c0-20.613.008-41.228.004-61.84zm-26.69 30.156c-.274 3.643-.212 7.328-.025 10.983.146 2.822-.867 3.865-3.71 3.811l-26.13-.03c-4.859.012-9.718.022-14.575-.017-5.957-.046-9.912-3.209-10.37-8.164-.5-5.425 2.499-9.2 8.686-10.212 3.178-.52 6.484-.323 9.733-.332 10.72-.031 21.44.086 32.157-.068 3.064-.044 4.49.649 4.235 4.029z" data-spm-anchor-id="a313x.7781069.0.i12" fill="#D70000"/><path d="M277.145 610.393l-14.086-.017c4.696.037 9.39.028 14.086.017zm5.86-.013c-1.953.003-3.906.008-5.86.013h.49c1.79-.003 3.58-.008 5.371-.01 6.92-.003 13.842-.094 20.76.04-6.92-.134-13.841-.043-20.761-.043z"/><path d="M481.547 589.232v5.286c0 7.367-4.267 10.625-11.624 9.023-4.516-.984-7.495-4.022-8.128-8.123-.741-4.798-.918-10.02.198-14.688 1.714-7.16 7.667-9.914 14.877-8.184 2.636.632 4.254 1.81 4.218 4.909-.046 3.92.343 7.845.544 11.769-.03.003-.057.004-.085.008z" data-spm-anchor-id="a313x.7781069.0.i10" class="prefix__prefix__selected" fill="#3235E5"/><path d="M641.614 516.873v-17.838l16.415.449h108.675l13.641-.45v17.839l-13.64-.525h-46.169c-.551 4.748-.925 7.67-1.126 8.769l-1.123 6.37h35.15l10.943-.448-.524 14.914v64.082l.524 15.964h-18.512v-2.922h-69.103v2.922h-18.438l.524-16.713v-63.333l-.524-14.914 12.366.449h28.256c.849-3.946 1.324-6.296 1.424-7.046l.9-8.094h-43.245l-16.414.525zm35.152 51.115h69.103v-20.086h-69.103v20.086zm69.103 38.674v-22.485h-69.103v22.485h69.103z" data-spm-anchor-id="a313x.7781069.0.i16" fill="#D70000"/><path d="M875.306 493.788c1.348 1.5 3.897 4.498 7.645 8.994a52.008 52.008 0 00-5.396 3.747h34.853l19.486-.525v17.014l-19.486-.525H824.64c0 2.248.024 3.923.076 5.021v19.038l.149 26.007c-.051 8.994-.588 16.552-1.612 22.672-1.024 6.12-2.987 11.853-5.883 17.201-2.899 5.347-7.045 10.968-12.441 16.863-3.25-5.896-5.223-9.219-5.922-9.968l-5.696-6.37c1.25-1.002 2.972-2.5 5.173-4.498 2.197-1.999 4.171-5.745 5.92-11.242 1.749-5.496 2.774-11.206 3.074-17.125.3-5.922.411-13.48.337-22.673-.075-9.192-.075-16.312 0-21.36.074-5.047.087-8.495.037-10.343l-.75-19.712 16.115.525h38.974c-2.5-3.347-4.248-5.496-5.246-6.445l-4.498-4.273c6.245-2.248 10.317-3.946 12.216-5.096l5.023-2.848c2.397 2.45 4.27 4.423 5.62 5.921zM828.087 632.37c-1.648-5.647-3.072-9.368-4.27-11.167l-3.974-6.22c12.99-.251 25.732-3.199 38.224-8.845-5.596-5.096-10.618-10.242-15.064-15.44 2.797-1.349 5.144-2.848 7.046-4.497h-8.321l-10.942.3v-15.44l10.942.45h69.553l7.72 9.443c-7.694 8.545-17.613 17.364-29.755 26.457 4.947 1.997 11.342 3.946 19.187 5.846 7.845 1.898 15.666 2.522 23.46 1.874-2.5 6.044-3.923 10.242-4.273 12.591l-.9 5.022c-7.095-.85-15.24-2.224-24.433-4.122-9.193-1.9-18.987-5.722-29.38-11.467-7.895 3.646-15.027 6.607-21.397 8.881s-14.18 4.386-23.423 6.334zm-.373-100.507l9.367.3h6.972l-.376-8.02h17.015l-.3 8.02h26.682l-.376-7.72h17.614l-.375 7.72h12.891l13.791-.3v15.89l-13.79-.3h-12.893v9.144l.375 10.567-13.116-.374h-36.35l-11.168.374.376-10.567v-9.145h-6.821l-9.518.3v-15.889zm32.677 21.286h26.682v-5.696H860.39v5.696zm12.965 44.97c6.096-4.047 11.093-8.02 14.99-11.917h-27.432a107.25 107.25 0 004.723 5.396c1.548 1.65 4.122 3.823 7.72 6.521z" data-spm-anchor-id="a313x.7781069.0.i17" fill="#D70000"/></svg>